<?xml version="1.0" encoding="UTF-8" standalone="no"?>
<!-- Created with Inkscape (http://www.inkscape.org/) -->

<svg
   width="127.99999"
   height="127.99999"
   viewBox="0 0 53.792178 53.792178"
   version="1.1"
   id="svg1"
   xml:space="preserve"
   xmlns="http://www.w3.org/2000/svg"
   xmlns:svg="http://www.w3.org/2000/svg"><defs
     id="defs1" /><circle
     style="fill:none;fill-opacity:1;stroke:#ffffff;stroke-width:8.40503;stroke-linecap:square;stroke-linejoin:bevel;stroke-dasharray:none;stroke-opacity:1"
     id="path1"
     cx="26.896091"
     cy="26.896091"
     r="13.448046" /><path
     style="fill:#ffffff;fill-opacity:1;stroke:none;stroke-width:8.15525;stroke-linecap:square;stroke-linejoin:bevel;stroke-dasharray:none;stroke-opacity:1"
     id="rect1"
     width="10.086034"
     height="10.086034"
     x="21.853073"
     y="1.6810057"
     rx="0.048515134"
     ry="0.053549718"
     d="m 21.901588,1.6810057 h 9.989004 c 0.02688,0 0.04851,0.023883 0.04851,0.05355 V 11.71349 c 0,0.02967 -0.02164,0.05355 -0.04851,0.05355 h -9.989004 c -0.02688,0 -0.04852,-0.02388 -0.04852,-0.05355 V 1.7345554 c 0,-0.029667 0.02164,-0.05355 0.04852,-0.05355 z M 3.9535845,14.84958 10.181626,7.039863 c 0.01676,-0.021014 0.04892,-0.02304 0.07212,-0.00454 l 7.801845,6.2217639 c 0.02319,0.0185 0.02838,0.0503 0.01162,0.07132 l -6.228042,7.809718 c -0.01676,0.02101 -0.04892,0.02304 -0.07211,0.0045 L 3.9652027,14.920899 c -0.023194,-0.0185 -0.028376,-0.0503 -0.011618,-0.07132 z M 3.0587935,37.092367 0.83603113,27.353809 c -0.005981,-0.0262 0.0124887,-0.05261 0.0414115,-0.05921 L 10.606184,25.074072 c 0.02892,-0.0066 0.05702,0.0092 0.063,0.03538 l 2.222762,9.738558 c 0.006,0.0262 -0.01249,0.05261 -0.04141,0.05922 L 3.1217963,37.12775 c -0.028923,0.0066 -0.057022,-0.0092 -0.063003,-0.03538 z M 19.891011,51.660093 10.89123,47.326027 c -0.02422,-0.01166 -0.03335,-0.04257 -0.02048,-0.0693 l 4.329697,-8.990709 c 0.01287,-0.02673 0.04273,-0.03886 0.06695,-0.0272 l 8.999781,4.334066 c 0.02422,0.01166 0.03335,0.04257 0.02048,0.0693 l -4.329698,8.990709 c -0.01287,0.02673 -0.04273,0.03886 -0.06695,0.0272 z m 21.884223,-4.077129 -8.999781,4.334066 c -0.02422,0.01166 -0.05407,-4.68e-4 -0.06694,-0.0272 l -4.329697,-8.990709 c -0.01287,-0.02673 -0.0037,-0.05763 0.02048,-0.0693 l 8.999781,-4.334066 c 0.02422,-0.01166 0.05407,4.68e-4 0.06694,0.0272 l 4.329698,8.990709 c 0.01287,0.02673 0.0037,0.05763 -0.02048,0.0693 z M 52.232196,27.931141 50.009434,37.6697 c -0.006,0.0262 -0.03408,0.04198 -0.063,0.03538 L 40.21769,35.484561 c -0.02892,-0.0066 -0.04739,-0.03301 -0.04141,-0.05922 l 2.222763,-9.738558 c 0.006,-0.0262 0.03408,-0.04199 0.063,-0.03538 l 9.728742,2.220522 c 0.02892,0.0066 0.04739,0.03301 0.04141,0.05921 z m -8.844604,-20.428293 6.228042,7.809717 c 0.01676,0.02101 0.01158,0.05282 -0.01162,0.07132 l -7.801846,6.221764 c -0.02319,0.0185 -0.05536,0.01647 -0.07211,-0.0045 l -6.228042,-7.809718 c -0.01676,-0.02101 -0.01158,-0.05282 0.01162,-0.07132 l 7.801845,-6.2217639 c 0.0232,-0.018497 0.05536,-0.016471 0.07212,0.00454 z" /></svg>
